<svg width="32" height="32" viewBox="0 0 32 32" xmlns="http://www.w3.org/2000/svg">
  <!-- 8-bit style fish -->
  <rect x="10" y="6" width="4" height="4" fill="#22c55e" />
  <rect x="14" y="6" width="4" height="4" fill="#22c55e" />
  <rect x="18" y="6" width="4" height="4" fill="#22c55e" />
  <rect x="6" y="10" width="4" height="4" fill="#22c55e" />
  <rect x="10" y="10" width="4" height="4" fill="#22c55e" />
  <rect x="14" y="10" width="4" height="4" fill="#22c55e" />
  <rect x="18" y="10" width="4" height="4" fill="#22c55e" />
  <rect x="22" y="10" width="4" height="4" fill="#22c55e" />
  <rect x="6" y="14" width="4" height="4" fill="#22c55e" />
  <rect x="10" y="14" width="4" height="4" fill="#22c55e" />
  <rect x="14" y="14" width="4" height="4" fill="#22c55e" />
  <rect x="18" y="14" width="4" height="4" fill="#22c55e" />
  <rect x="22" y="14" width="4" height="4" fill="#22c55e" />
  <rect x="10" y="18" width="4" height="4" fill="#22c55e" />
  <rect x="14" y="18" width="4" height="4" fill="#22c55e" />
  <rect x="18" y="18" width="4" height="4" fill="#22c55e" />
  <!-- Eye -->
  <rect x="18" y="10" width="4" height="4" fill="#ffffff" />
  <rect x="18" y="10" width="2" height="2" fill="#000000" />
  <!-- Bubbles -->
  <rect x="26" y="6" width="2" height="2" fill="#1e40af" />
  <rect x="28" y="8" width="2" height="2" fill="#1e40af" />
</svg> 